# xmcd
#
# Track frame offsets: 
#        150
#        17087
#        40530
#        54675
#        81435
#        89452
#        122795
#        141830
#        160385
#        178942
#        201407
#
# Disc length: 2885 seconds
#
# Revision: 4
# Processed by: cddbd v1.5.2PL0 Copyright (c) Steve Scherf et al.
# Submitted via: ExactAudioCopy v1.3
#
DISCID=9c0b430b
DTITLE=Louis Tillett and Charly Owen - RTS 5: The Ugly Truth
DYEAR=1900
DGENRE=Return To Sender
TTITLE0=Trip To Kalu-Ki-Bar
TTITLE1=Sailor´s Dream
TTITLE2=Wilt
TTITLE3=Swimming In The Mirror
TTITLE4=The Rational One
TTITLE5=From Me To You
TTITLE6=One Kind Favour
TTITLE7=The Ugly Truth
TTITLE8=Liferaft
TTITLE9=Condemned To Live
TTITLE10=Ode To A Falling Star
EXTD=Limited Edition Of 2000 Copies.\r\nDigipak.\r\nRTS 5
EXTT0=
EXTT1=
EXTT2=
EXTT3=
EXTT4=
EXTT5=
EXTT6=
EXTT7=
EXTT8=
EXTT9=
EXTT10=
PLAYORDER=
